<?xml version="1.0" standalone="no"?>
<!DOCTYPE svg PUBLIC "-//W3C//DTD SVG 20010904//EN"
 "http://www.w3.org/TR/2001/REC-SVG-20010904/DTD/svg10.dtd">
<svg version="1.0" xmlns="http://www.w3.org/2000/svg"
 width="300.000000pt" height="300.000000pt" viewBox="0 0 300.000000 300.000000"
 preserveAspectRatio="xMidYMid meet">
<metadata>
Created by potrace 1.10, written by Peter Selinger 2001-2011
</metadata>
<g transform="translate(0.000000,300.000000) scale(0.100000,-0.100000)"
fill="#000000" stroke="none">
<path d="M1198 2945 c-63 -16 -208 -84 -208 -97 0 -4 -5 -8 -12 -8 -14 0 -106
-97 -113 -121 -3 -9 -30 -29 -60 -44 -62 -30 -166 -127 -213 -199 -38 -59 -73
-148 -77 -198 -2 -26 -17 -56 -50 -100 -25 -34 -53 -75 -61 -90 -27 -51 -46
-162 -45 -253 0 -69 -5 -107 -24 -168 -36 -112 -35 -249 1 -327 39 -85 104
-140 164 -140 11 0 22 -12 29 -30 5 -17 20 -34 33 -39 30 -11 56 -83 65 -174
7 -75 15 -87 43 -62 20 18 25 14 35 -35 12 -54 51 -139 98 -208 34 -51 46 -61
64 -57 15 3 23 0 27 -12 16 -50 140 -151 170 -140 9 4 11 -3 8 -21 -4 -22 -6
-23 -11 -9 -6 17 -9 17 -35 -4 -15 -12 -32 -33 -37 -46 -5 -15 -26 -32 -54
-44 -64 -28 -82 -67 -47 -105 18 -19 17 -19 -39 -20 -40 -1 -68 -8 -93 -23
-40 -25 -44 -36 -18 -50 30 -16 285 -99 327 -106 l40 -7 -24 23 c-17 16 -34
22 -54 20 -17 -1 -27 1 -23 7 3 5 -5 12 -19 14 -14 3 -25 1 -25 -3 0 -5 -5 -9
-10 -9 -6 0 -9 5 -8 11 2 6 -19 18 -45 25 -26 8 -45 19 -42 24 4 6 -3 7 -17 2
-26 -9 -58 -5 -58 8 0 11 79 36 108 34 12 -1 22 2 22 7 0 5 6 6 13 3 8 -3 26
0 42 6 27 10 31 8 66 -32 20 -24 37 -46 37 -51 1 -4 6 -13 12 -20 37 -44 50
-61 50 -66 0 -4 12 -8 27 -9 l27 -2 -21 22 c-11 13 -34 43 -50 68 -39 58 -120
148 -145 161 -16 9 -19 7 -18 -8 4 -39 1 -44 -20 -33 -11 6 -20 21 -20 34 0
17 11 28 50 46 32 15 57 36 70 58 11 19 30 36 41 39 14 4 18 11 14 24 -7 21 2
24 25 8 13 -9 12 -10 -3 -5 -10 3 -16 2 -13 -3 3 -4 37 -11 76 -13 83 -6 95
-14 81 -51 -12 -30 -47 -68 -55 -60 -3 3 -12 0 -21 -7 -13 -11 -15 -8 -15 24
0 29 -4 36 -20 36 -23 0 -23 -2 -9 -55 15 -58 167 -285 190 -285 22 0 24 -4
-79 147 -57 85 -61 93 -43 102 15 9 20 7 24 -10 15 -56 63 42 74 149 6 59 8
63 27 57 91 -26 185 -28 276 -4 19 4 39 8 44 8 5 0 13 5 17 13 6 9 9 9 9 1 0
-6 -4 -15 -10 -18 -20 -12 -1 -174 26 -216 9 -16 36 3 31 22 -6 23 -1 24 19 5
7 -8 19 -16 26 -19 9 -3 7 -11 -8 -28 -25 -29 -122 -173 -130 -194 -4 -9 -1
-15 7 -15 16 0 151 190 179 252 31 69 21 138 -19 138 -12 0 -15 -23 -4 -34 21
-21 9 -81 -14 -71 -14 5 -14 3 -2 -12 8 -9 -3 -5 -23 11 -20 15 -42 25 -49 21
-7 -5 -9 -1 -5 12 3 10 2 40 -3 66 l-8 47 64 0 c87 0 138 -26 162 -83 17 -40
40 -58 88 -72 25 -7 37 -36 28 -64 -6 -19 -7 -19 -26 -3 -10 9 -19 22 -19 29
0 31 -28 9 -39 -29 -10 -33 -32 -62 -99 -125 -79 -75 -84 -83 -60 -83 21 0 43
17 90 66 70 73 87 97 89 134 2 24 2 24 6 3 3 -15 14 -25 31 -29 15 -4 32 -10
37 -14 6 -4 21 -6 35 -5 37 3 94 -15 83 -26 -5 -5 -19 -11 -31 -14 -12 -2 -26
-6 -31 -9 -5 -4 -12 0 -15 6 -3 10 -8 8 -16 -4 -6 -10 -22 -16 -42 -16 -18 1
-34 -4 -36 -10 -2 -7 -10 -12 -18 -12 -8 0 -22 -4 -32 -9 -9 -5 -34 -17 -54
-26 -122 -53 79 -3 250 62 50 20 92 39 92 42 0 16 -84 51 -121 51 l-39 0 0 43
c-1 52 -16 73 -61 84 -26 7 -38 18 -52 49 -19 42 -97 101 -117 89 -5 -3 -10 0
-10 7 0 7 26 26 58 41 31 16 74 37 95 47 30 15 37 16 37 4 0 -49 87 33 132
125 18 38 23 42 33 27 29 -40 52 -3 110 174 41 127 103 270 116 270 11 0 40
44 43 67 2 11 15 20 37 24 20 5 47 22 66 42 83 91 84 313 3 427 -17 25 -20 38
-14 75 17 115 7 250 -27 351 -20 62 -81 173 -101 186 -7 3 -15 39 -19 80 -12
110 -59 196 -167 306 -108 111 -177 147 -297 157 -49 5 -101 17 -135 31 -98
42 -164 53 -353 59 -141 4 -195 2 -239 -10z m507 -60 c42 -14 89 -32 103 -39
15 -8 59 -16 97 -19 78 -6 84 -7 140 -32 79 -35 210 -162 260 -251 37 -68 58
-164 35 -164 -19 0 -10 -22 36 -81 91 -119 126 -231 126 -412 1 -92 -2 -112
-16 -122 -15 -12 -15 -15 7 -41 59 -71 72 -111 72 -229 0 -94 -3 -116 -22
-150 -20 -39 -77 -83 -86 -68 -10 20 -16 43 -9 42 54 -8 61 8 37 79 -28 79
-54 122 -75 122 -25 0 -25 -14 -1 -54 16 -28 17 -42 9 -140 -11 -148 -19 -158
-57 -74 -45 101 -78 214 -101 345 -44 246 -65 311 -133 416 -94 145 -264 259
-457 308 -70 18 -103 20 -204 16 -151 -6 -211 -22 -354 -93 -97 -48 -126 -69
-196 -138 -124 -123 -148 -179 -247 -566 -86 -336 -86 -335 -75 -365 6 -14 5
-16 -2 -6 -5 7 -14 11 -19 8 -5 -4 -19 26 -31 66 -33 113 -34 123 -13 158 21
34 18 59 -6 59 -19 0 -63 -101 -63 -144 0 -25 5 -35 20 -39 12 -3 20 -14 20
-26 l0 -21 -39 19 c-112 58 -145 237 -81 436 14 43 19 85 18 145 -1 96 13 171
48 245 22 48 43 75 114 152 35 37 37 49 10 56 -20 5 -20 5 0 62 20 59 46 106
77 141 10 12 32 37 50 57 33 38 121 99 161 111 12 4 31 25 42 46 30 58 92 112
181 159 43 22 79 39 79 37 0 -2 19 2 43 10 33 11 85 13 234 9 168 -5 201 -8
268 -30z m-48 -600 c82 -19 115 -34 109 -52 -3 -7 -1 -13 3 -13 5 0 11 6 14
13 5 12 6 12 102 -41 17 -10 34 -23 38 -29 4 -7 14 -13 21 -13 17 0 109 -92
145 -145 32 -47 72 -131 76 -160 1 -11 9 -40 18 -65 8 -25 18 -65 22 -90 4
-25 12 -51 18 -58 7 -9 6 -11 -8 -6 -10 4 -21 1 -27 -7 -7 -10 -8 -8 -3 8 4
14 -6 46 -31 95 -45 89 -94 208 -94 228 0 11 -2 12 -8 3 -5 -8 -8 0 -8 20 0
47 -10 67 -35 67 -21 0 -22 -2 -17 -113 3 -62 10 -122 16 -133 8 -16 8 -24 -1
-34 -10 -10 -8 -12 8 -6 14 5 17 4 9 -4 -11 -11 -47 -3 -39 9 2 4 -9 22 -25
39 -54 60 -105 194 -118 314 -5 46 -11 63 -22 63 -18 0 -32 -97 -19 -131 5
-14 3 -28 -7 -40 -13 -18 -14 -17 -12 11 2 23 -1 30 -14 29 -11 -1 -15 3 -11
9 4 6 7 35 8 63 3 61 -18 82 -36 36 -34 -86 -58 -177 -65 -247 -4 -44 -10 -70
-12 -57 -2 12 -7 22 -11 22 -4 0 -6 13 -3 30 9 62 -26 112 -43 61 -10 -33 45
-225 69 -243 5 -3 -4 -17 -20 -31 -16 -14 -31 -23 -33 -21 -3 2 5 11 17 20 22
15 29 34 14 34 -5 0 -23 -14 -40 -31 -60 -59 -29 -82 38 -29 21 17 46 30 55
30 10 0 23 8 30 17 9 13 29 16 87 16 81 0 118 -15 167 -67 28 -30 41 -33 41
-11 0 25 -85 100 -128 113 -48 15 -137 16 -162 2 -17 -9 -21 -6 -26 16 -11 44
17 305 35 326 3 4 6 -14 7 -40 1 -32 12 -70 35 -117 36 -74 59 -94 59 -51 0
41 14 31 33 -24 27 -77 130 -180 180 -180 16 0 18 4 12 28 -26 102 -42 195
-30 179 6 -9 15 -13 20 -9 4 4 4 -3 1 -15 -5 -16 8 -54 43 -130 27 -59 51
-126 53 -148 4 -47 31 -44 -224 -24 -200 15 -333 4 -381 -32 -39 -29 -104 -29
-143 -1 -35 25 -61 31 -179 38 -84 6 -334 -9 -399 -23 -27 -5 -29 -4 -22 18 4
13 8 29 9 35 2 6 17 28 35 49 41 51 70 113 77 167 10 70 15 88 24 88 6 0 11
-10 13 -22 3 -25 64 -70 87 -66 11 2 14 18 12 75 -2 65 0 72 19 78 24 8 54 69
46 92 -4 8 -1 11 5 8 6 -4 17 1 24 11 8 11 15 14 15 9 0 -6 -5 -16 -10 -21
-12 -12 -18 -159 -7 -170 14 -14 35 7 42 43 11 58 119 234 153 247 10 4 11 -3
6 -32 -15 -84 -58 -179 -115 -256 -33 -44 -59 -86 -59 -93 0 -46 163 42 224
122 28 36 33 51 14 39 -7 -5 -8 -3 -3 5 6 10 10 10 22 -2 12 -12 12 -24 -6
-95 -12 -44 -24 -87 -27 -96 -11 -28 25 -31 53 -5 29 27 67 104 58 119 -3 6 1
10 10 10 9 0 13 5 10 10 -3 6 -2 10 4 10 6 0 9 6 7 13 -1 6 -1 9 1 5 11 -20
23 -4 23 31 0 70 -43 75 -53 6 -2 -17 -8 -41 -14 -55 -6 -14 -14 -40 -18 -57
-3 -18 -10 -33 -15 -33 -8 0 -6 45 4 79 14 46 16 81 4 81 -9 0 -10 3 -2 8 18
11 26 49 13 58 -8 4 -24 -6 -42 -27 -76 -87 -177 -186 -177 -173 0 3 -7 -2
-16 -11 -9 -9 -19 -13 -23 -9 -3 4 -1 9 6 11 24 9 123 142 123 166 0 14 7 41
15 61 8 20 17 67 20 106 4 62 3 70 -13 70 -30 0 -125 -94 -157 -154 -30 -59
-40 -72 -48 -59 -6 11 40 194 52 206 5 5 40 17 77 27 88 23 258 26 351 5z
m-467 -53 c0 -3 -6 -13 -14 -21 -8 -9 -35 -58 -61 -109 -33 -64 -55 -96 -71
-102 -15 -6 -24 -18 -25 -32 -1 -13 -3 -35 -5 -51 -2 -19 1 -25 9 -21 7 4 7 2
-1 -7 -11 -12 -15 -11 -23 4 -6 9 -15 14 -21 11 -7 -5 -9 -2 -5 8 3 9 -1 33
-8 54 -29 86 -29 109 2 138 15 15 65 50 110 78 46 28 80 54 78 58 -3 5 4 6 15
3 11 -3 20 -8 20 -11z m641 -192 c5 0 9 -16 9 -36 0 -19 5 -44 10 -54 8 -15 7
-19 -9 -17 -10 0 -18 6 -18 12 0 5 -1 19 -1 29 -2 20 -2 20 -17 0 -8 -10 -15
-15 -15 -10 0 5 8 18 17 28 14 16 15 24 6 48 -6 16 -8 32 -4 35 3 4 7 -3 9
-14 2 -12 8 -21 13 -21z m-921 -25 c-4 -12 -4 -29 1 -38 6 -10 6 -17 1 -17 -5
0 -12 -28 -16 -62 -4 -35 -9 -72 -10 -83 -9 -68 -115 -205 -159 -205 -12 0
-17 4 -12 8 16 11 42 75 39 95 -5 35 51 172 123 302 17 29 44 30 33 0z m-175
-425 c-3 -5 4 -10 16 -10 18 0 20 -4 14 -22 -3 -13 -9 -79 -11 -148 -6 -142
-10 -164 -25 -137 -6 9 -17 17 -24 17 -19 0 -19 -34 -1 -50 8 -6 16 -28 18
-48 2 -20 7 -35 11 -32 5 3 13 -4 19 -14 13 -24 18 -106 6 -106 -4 0 -8 9 -8
19 0 10 -7 21 -15 25 -8 3 -15 11 -15 18 0 9 3 9 10 -2 12 -19 21 -9 14 17 -4
13 -13 21 -25 20 -25 -2 -24 -10 6 -62 19 -32 23 -45 14 -51 -8 -4 -9 -3 -5 4
4 6 -5 19 -19 28 -17 11 -25 24 -22 35 3 10 0 20 -7 22 -8 3 -7 8 2 19 10 12
10 21 1 42 -7 14 -16 26 -20 26 -24 0 -19 76 12 207 36 147 36 149 38 176 0 9
6 17 12 17 5 0 7 -4 4 -10z m1489 -12 c3 -13 10 -52 17 -88 7 -36 25 -100 41
-142 l30 -78 -26 -64 c-15 -37 -23 -72 -19 -82 4 -12 3 -15 -5 -10 -15 9 -16
130 -1 157 6 12 8 27 5 35 -7 18 -36 7 -36 -15 -1 -23 -27 -55 -35 -42 -3 6
-2 11 3 11 13 0 14 179 2 259 -5 36 -7 68 -4 73 10 15 24 8 28 -14z m-909 -30
c41 -7 65 -17 77 -32 25 -31 121 -30 164 2 44 33 142 45 314 37 164 -7 228
-17 241 -36 14 -21 0 -81 -25 -109 -21 -23 -32 -50 -43 -103 -12 -66 -43 -79
-198 -82 l-120 -3 110 8 c61 4 124 13 140 20 17 7 34 12 38 11 5 -1 6 3 2 9
-4 6 -2 16 3 23 6 7 13 30 17 52 3 22 9 52 11 68 3 16 1 27 -5 27 -6 0 -11
-19 -12 -42 0 -60 -19 -108 -52 -132 -25 -18 -42 -21 -160 -21 -147 0 -179 9
-208 60 -23 41 -32 95 -16 95 6 0 34 -11 61 -25 92 -46 260 -27 298 34 7 12
21 21 31 21 25 0 53 16 61 35 6 17 -51 78 -65 69 -5 -3 4 -17 21 -31 35 -29
37 -39 11 -46 -12 -3 -28 7 -48 29 -16 19 -28 36 -26 38 7 7 -95 16 -157 15
-84 -1 -159 -18 -186 -42 -23 -20 -25 -27 -20 -87 4 -55 33 -165 35 -135 1 6
6 3 11 -5 5 -8 29 -20 52 -27 36 -9 38 -11 15 -12 -37 -1 -92 23 -105 45 -6
11 -13 16 -17 12 -4 -3 6 -20 22 -37 37 -41 110 -54 268 -49 165 6 199 27 220
140 4 20 16 45 27 55 11 10 29 35 40 56 11 22 22 37 25 34 14 -14 1 -246 -18
-322 -36 -144 -129 -317 -234 -434 -72 -80 -165 -169 -208 -199 -79 -55 -198
-80 -305 -63 -110 18 -164 50 -281 169 -128 129 -190 211 -244 317 -71 141
-79 174 -86 345 -4 85 -5 157 -3 160 3 3 9 -4 16 -14 6 -10 23 -31 37 -46 17
-18 29 -45 34 -76 15 -105 45 -119 255 -119 137 0 160 2 195 21 35 18 42 28
58 80 10 32 22 66 26 74 12 22 59 43 85 36 19 -5 22 -12 23 -59 2 -74 20 -137
39 -137 11 0 14 6 10 16 -15 40 -18 64 -6 64 12 0 7 43 -11 92 -21 52 -105 61
-146 15 -11 -12 -25 -46 -31 -76 -13 -59 -37 -86 -84 -96 -44 -10 -44 0 1 15
33 11 43 21 60 61 27 61 28 148 4 178 -24 30 -112 51 -209 51 -115 0 -136 -6
-162 -46 -15 -24 -30 -34 -47 -34 -34 0 -31 13 8 45 29 24 30 26 7 20 -14 -4
-31 -14 -37 -23 -26 -33 -9 -206 23 -233 8 -6 31 -17 51 -25 32 -11 34 -13 13
-14 -38 0 -89 35 -96 67 -19 84 -27 104 -48 118 -18 12 -23 25 -25 65 -1 34 2
52 11 55 56 21 375 29 473 13z m848 -22 c5 -14 -10 -36 -25 -36 -4 0 -8 8 -8
18 0 31 23 44 33 18z m-1347 -23 c-4 -24 -26 -29 -26 -5 0 10 3 22 6 25 11 10
22 -2 20 -20z m422 4 c55 -13 102 -47 102 -74 0 -8 -4 -12 -8 -9 -5 3 -23 -4
-42 -15 -23 -14 -57 -22 -114 -26 -72 -4 -86 -2 -126 19 -55 30 -63 58 -23 86
46 33 122 39 211 19z m663 -12 c54 -29 47 -69 -17 -100 -55 -26 -184 -17 -241
16 -24 13 -43 27 -43 30 0 3 10 15 23 26 54 48 208 64 278 28z m-950 -65 c10
0 33 -14 51 -30 18 -17 51 -35 73 -41 60 -17 176 -6 220 19 53 32 68 29 60
-10 -22 -103 -58 -123 -225 -123 -176 0 -204 19 -217 149 -5 50 -3 59 8 49 7
-7 21 -13 30 -13z m1279 -222 c-4 -29 -12 -66 -18 -81 -7 -16 -12 -39 -12 -53
0 -27 -12 -31 -29 -10 -17 20 11 102 33 100 11 -1 16 6 16 23 0 13 -4 21 -10
18 -5 -3 -10 -1 -10 4 0 6 4 11 9 11 5 0 11 9 14 20 10 37 13 20 7 -32z m119
45 c-1 -5 0 -10 1 -13 13 -29 4 -83 -26 -144 -18 -38 -31 -73 -29 -77 3 -4 -2
-12 -10 -19 -8 -7 -15 -18 -15 -26 0 -7 -12 -50 -27 -96 -15 -46 -26 -88 -25
-93 2 -13 -38 -39 -46 -29 -4 4 -1 9 6 11 12 5 17 45 6 56 -13 12 -34 -6 -34
-31 0 -26 -59 -141 -82 -159 -7 -6 -55 -27 -106 -48 -52 -21 -118 -56 -147
-77 -32 -22 -66 -38 -86 -40 -19 -1 -38 -7 -42 -13 -5 -6 -7 -4 -5 5 3 8 26
29 52 46 87 58 280 258 271 282 -2 7 -1 11 4 8 8 -5 30 23 75 97 10 16 28 56
40 88 19 52 24 58 35 45 21 -25 67 -20 96 12 14 15 24 35 21 45 -2 9 0 15 5
11 5 -3 9 1 9 9 0 25 47 117 55 109 4 -4 5 0 3 8 -3 8 -11 14 -18 12 -11 -3
-11 0 0 12 14 17 21 20 19 9z m-1171 -30 c-26 -2 -71 -2 -100 0 -29 2 -8 3 47
3 55 0 79 -1 53 -3z m-539 -20 c2 -95 41 -178 88 -189 29 -8 60 7 55 27 -2 10
0 10 12 -1 9 -7 16 -19 16 -26 0 -46 141 -271 202 -322 15 -13 25 -29 21 -35
-4 -7 0 -8 11 -4 14 6 17 3 12 -10 -4 -10 -4 -15 -1 -11 3 3 38 -26 78 -64 40
-38 86 -77 102 -85 39 -20 38 -18 24 -41 -9 -14 -18 -18 -28 -13 -9 5 -34 12
-56 16 -130 23 -212 84 -282 210 -23 42 -43 56 -43 31 0 -34 -21 -13 -54 52
-36 73 -66 165 -66 206 0 14 -2 26 -4 26 -2 0 -12 3 -22 7 -14 5 -16 2 -12
-13 4 -14 0 -20 -13 -21 -15 -1 -19 6 -20 30 -1 51 -5 69 -29 130 -19 50 -20
62 -10 88 14 33 19 36 19 12z"/>
<path d="M1577 2612 c-3 -4 7 -16 23 -25 18 -11 31 -14 35 -7 3 5 1 10 -6 10
-7 0 -20 7 -30 16 -9 8 -19 11 -22 6z"/>
<path d="M1359 2599 c-56 -12 -39 -15 81 -14 66 0 120 3 120 7 0 9 -163 15
-201 7z"/>
<path d="M1715 2520 c3 -14 9 -42 12 -62 3 -21 10 -38 14 -38 14 0 11 21 -11
75 -12 28 -18 39 -15 25z"/>
<path d="M845 2370 c3 -6 27 -10 52 -10 57 0 53 5 -10 13 -31 4 -46 3 -42 -3z"/>
<path d="M756 2227 c-28 -36 -32 -47 -17 -47 5 0 13 9 16 20 3 11 13 27 22 35
8 9 13 18 10 21 -3 3 -17 -10 -31 -29z"/>
<path d="M2230 2135 c0 -8 4 -23 10 -33 13 -23 40 -125 40 -150 0 -12 5 -24
11 -28 14 -8 6 33 -27 144 -24 79 -34 98 -34 67z"/>
<path d="M681 2088 c-12 -31 -21 -65 -18 -75 3 -13 6 -10 11 12 4 17 15 45 23
63 8 18 13 38 11 44 -3 7 -14 -14 -27 -44z"/>
<path d="M626 1858 c-2 -7 -9 -35 -16 -63 -7 -27 -14 -58 -17 -69 -3 -12 -1
-16 6 -12 6 4 11 17 11 29 0 12 9 46 19 75 11 28 15 52 10 52 -5 0 -11 -6 -13
-12z"/>
<path d="M2311 1801 c-1 -42 30 -172 39 -166 4 2 1 28 -6 57 -8 29 -14 64 -15
78 0 14 -4 34 -9 45 -7 17 -9 14 -9 -14z"/>
<path d="M1446 2247 c-18 -48 -20 -67 -7 -67 9 0 41 77 41 98 0 26 -18 10 -34
-31z"/>
<path d="M1629 2255 c-1 -3 -2 -8 -3 -12 -1 -5 -5 -18 -10 -30 -4 -13 -4 -28
0 -35 4 -7 13 7 20 33 8 24 14 45 14 47 0 4 -20 2 -21 -3z"/>
<path d="M1888 2132 c-8 -27 2 -132 12 -132 3 0 5 28 3 63 -6 86 -8 96 -15 69z"/>
<path d="M1920 2096 c0 -19 5 -38 10 -41 6 -4 10 10 10 34 0 23 -4 41 -10 41
-5 0 -10 -15 -10 -34z"/>
<path d="M1900 1978 c0 -9 7 -23 15 -32 8 -8 15 -22 15 -30 0 -9 5 -16 10 -16
15 0 12 11 -15 55 -14 23 -25 33 -25 23z"/>
<path d="M1554 1908 c-4 -7 -3 -8 4 -4 7 4 12 2 12 -3 0 -6 -6 -11 -14 -11 -7
0 -16 -13 -19 -29 -3 -16 -9 -40 -13 -55 -5 -22 -3 -26 15 -26 20 0 40 28 56
79 6 19 4 23 -7 18 -11 -4 -14 1 -10 19 4 25 -11 33 -24 12z"/>
<path d="M1042 1757 c-37 -11 -122 -90 -122 -112 0 -22 13 -18 41 11 46 49 86
66 152 67 78 1 131 -16 184 -59 23 -19 48 -34 57 -34 52 0 -37 99 -112 125
-51 17 -150 18 -200 2z"/>
<path d="M818 1833 c-9 -32 -19 -69 -23 -83 -7 -24 -7 -24 8 -5 21 28 49 127
39 137 -5 5 -16 -17 -24 -49z"/>
<path d="M1355 1130 c-10 -16 15 -79 35 -90 20 -11 122 -13 157 -4 22 6 53 58
53 88 0 27 -29 18 -36 -11 -11 -46 -22 -53 -89 -53 -67 0 -78 7 -89 53 -7 28
-20 35 -31 17z"/>
<path d="M1238 864 c-28 -15 -28 -20 0 -64 2 -2 7 1 11 8 6 10 14 10 37 1 39
-17 377 -17 396 -1 10 8 18 8 25 1 6 -6 13 -1 21 15 9 21 8 26 -13 40 -31 20
-37 20 -33 -1 4 -24 -44 -33 -197 -35 -141 -2 -228 13 -218 38 6 17 5 17 -29
-2z"/>
<path d="M1364 736 c34 -27 216 -23 216 5 0 6 -8 5 -22 -2 -22 -12 -155 -8
-193 6 -20 7 -20 6 -1 -9z"/>
<path d="M1176 1478 c-9 -35 -7 -52 7 -71 10 -15 12 -9 12 38 0 57 -8 71 -19
33z"/>
<path d="M1234 1466 c-11 -28 4 -48 33 -44 32 3 43 32 16 42 -10 3 -24 9 -30
12 -7 3 -16 -1 -19 -10z"/>
<path d="M1780 1481 c-13 -26 -13 -53 3 -74 10 -15 12 -9 12 38 0 30 -1 55 -2
55 -1 0 -7 -9 -13 -19z"/>
<path d="M1834 1466 c-15 -39 29 -73 52 -41 18 25 18 31 -3 39 -10 3 -24 9
-30 12 -7 3 -16 -1 -19 -10z"/>
<path d="M2109 895 c-3 -32 0 -138 5 -142 3 -4 6 28 6 70 0 43 -2 77 -5 77 -3
0 -5 -2 -6 -5z"/>
<path d="M805 900 c3 -74 11 -100 31 -100 17 0 17 1 -1 36 -8 16 -15 43 -16
59 0 17 -4 39 -9 50 -6 13 -7 -3 -5 -45z"/>
<path d="M1870 231 c-14 -31 -56 -85 -97 -129 -40 -41 -73 -79 -73 -83 0 -16
132 125 167 178 19 28 33 59 31 69 -2 11 -12 -1 -28 -35z"/>
<path d="M1344 41 c14 -13 39 -16 136 -16 74 0 123 4 130 11 8 8 -13 10 -82 7
-51 -3 -117 -1 -146 5 -50 9 -53 8 -38 -7z"/>
</g>
</svg>
